<?xml version="1.0" encoding="UTF-8"?>
<svg width="208px" height="200px" viewBox="0 0 208 200" version="1.1" xmlns="http://www.w3.org/2000/svg" xmlns:xlink="http://www.w3.org/1999/xlink">
    <!-- Generator: Sketch 41 (35326) - http://www.bohemiancoding.com/sketch -->
    <title>lines_person</title>
    <desc>Created with Sketch.</desc>
    <defs></defs>
    <g id="Graphic-Export" stroke="none" stroke-width="1" fill="none" fill-rule="evenodd">
        <g id="exports" transform="translate(-77.000000, -1198.000000)">
            <g id="lines_person" transform="translate(77.000000, 1198.000000)">
                <polygon id="Fill-1" fill="#C0BCBB" points="68.674 15.814 138.518 15.814 138.518 10.814 68.674 10.814"></polygon>
                <polygon id="Fill-2" fill="#C0BCBB" points="59.478 26.628 147.867 26.628 147.867 21.628 59.478 21.628"></polygon>
                <polygon id="Fill-3" fill="#D8A55A" points="87.343 5 119.983 5 119.983 0 87.343 0"></polygon>
                <polygon id="Fill-4" fill="#AA81AC" points="54.35 37.442 84.741 37.442 84.741 32.442 54.35 32.442"></polygon>
                <polygon id="Fill-5" fill="#6696AC" points="126.53 48.255 155.111 48.255 155.111 43.255 126.53 43.255"></polygon>
                <polygon id="Fill-6" fill="#C0BCBB" points="52.057 59.069 108.14 59.069 108.14 54.069 52.057 54.069"></polygon>
                <polygon id="Fill-7" fill="#515F6D" points="94.741 37.442 130.403 37.442 130.403 32.442 94.741 32.442"></polygon>
                <polygon id="Fill-8" fill="#A6BB75" points="118.14 59.069 155.111 59.069 155.111 54.069 118.14 54.069"></polygon>
                <polygon id="Fill-9" fill="#A6BB75" points="142.906 69.883 152.83 69.883 152.83 64.883 142.906 64.883"></polygon>
                <polygon id="Fill-10" fill="#D8A55A" points="52.057 48.255 116.53 48.255 116.53 43.255 52.057 43.255"></polygon>
                <polygon id="Fill-11" fill="#AA81AC" points="54.892 69.883 132.851 69.883 132.851 64.883 54.892 64.883"></polygon>
                <polygon id="Fill-12" fill="#C0BCBB" points="140.403 37.442 152.475 37.442 152.475 32.442 140.403 32.442"></polygon>
                <polygon id="Fill-13" fill="#AA81AC" points="76.078 134.767 132.851 134.767 132.851 129.767 76.078 129.767"></polygon>
                <polygon id="Fill-14" fill="#D8A55A" points="5.892 167.209 53.518 167.209 53.518 162.209 5.892 162.209"></polygon>
                <polygon id="Fill-15" fill="#515F6D" points="0.561 178.023 15.655 178.023 15.655 173.023 0.561 173.023"></polygon>
                <polygon id="Fill-16" fill="#A6BB75" points="18.059 156.395 56.7 156.395 56.7 151.395 18.059 151.395"></polygon>
                <polygon id="Fill-17" fill="#515F6D" points="93.404 91.511 137.892 91.511 137.892 86.511 93.404 86.511"></polygon>
                <polygon id="Fill-18" fill="#D7734A" points="37.379 145.581 84.741 145.581 84.741 140.581 37.379 140.581"></polygon>
                <polygon id="Fill-19" fill="#D8A55A" points="86.53 156.395 191.671 156.395 191.671 151.395 86.53 151.395"></polygon>
                <polygon id="Fill-20" fill="#515F6D" points="68.674 91.511 83.404 91.511 83.404 86.511 68.674 86.511"></polygon>
                <polygon id="Fill-21" fill="#AA81AC" points="87.343 102.325 119.983 102.325 119.983 97.325 87.343 97.325"></polygon>
                <polygon id="Fill-22" fill="#C0BCBB" points="63.518 167.209 108.14 167.209 108.14 162.209 63.518 162.209"></polygon>
                <polygon id="Fill-23" fill="#C0BCBB" points="94.741 145.581 140.403 145.581 140.403 140.581 94.741 140.581"></polygon>
                <polygon id="Fill-24" fill="#C0BCBB" points="173.789 167.209 201.699 167.209 201.699 162.209 173.789 162.209"></polygon>
                <polygon id="Fill-25" fill="#D26D75" points="118.14 167.209 163.802 167.209 163.802 162.209 118.14 162.209"></polygon>
                <polygon id="Fill-26" fill="#C0BCBB" points="142.906 178.023 171.154 178.023 171.154 173.023 142.906 173.023"></polygon>
                <polygon id="Fill-27" fill="#C0BCBB" points="181.237 178.023 207.168 178.023 207.168 173.023 181.237 173.023"></polygon>
                <polygon id="Fill-28" fill="#D26D75" points="66.7 156.395 76.53 156.395 76.53 151.395 66.7 151.395"></polygon>
                <polygon id="Fill-29" fill="#C0BCBB" points="59.098 80.697 104.369 80.697 104.369 75.697 59.098 75.697"></polygon>
                <polygon id="Fill-30" fill="#515F6D" points="114.47 80.697 147.39 80.697 147.39 75.697 114.47 75.697"></polygon>
                <polygon id="Fill-31" fill="#D8A55A" points="25.484 178.023 132.851 178.023 132.851 173.023 25.484 173.023"></polygon>
                <polygon id="Fill-32" fill="#A6BB75" points="150.403 145.581 169.07 145.581 169.07 140.581 150.403 140.581"></polygon>
                <polygon id="Fill-33" fill="#D26D75" points="153.403 199.651 169.07 199.651 169.07 194.651 153.403 194.651"></polygon>
                <polygon id="Fill-34" fill="#C0BCBB" points="0.074 188.837 66.078 188.837 66.078 183.838 0.074 183.838"></polygon>
                <polygon id="Fill-35" fill="#C0BCBB" points="0 199.651 62.733 199.651 62.733 194.651 0 194.651"></polygon>
                <polygon id="Fill-36" fill="#6696AC" points="72.734 199.651 143.404 199.651 143.404 194.651 72.734 194.651"></polygon>
                <polygon id="Fill-37" fill="#A6BB75" points="179.07 199.651 188.9 199.651 188.9 194.651 179.07 194.651"></polygon>
                <polygon id="Fill-38" fill="#AA81AC" points="76.078 188.837 104.369 188.837 104.369 183.837 76.078 183.837"></polygon>
                <polygon id="Fill-39" fill="#C0BCBB" points="114.47 188.837 143.07 188.837 143.07 183.837 114.47 183.837"></polygon>
                <polygon id="Fill-40" fill="#C0BCBB" points="153.07 188.837 181.67 188.837 181.67 183.837 153.07 183.837"></polygon>
                <polygon id="Fill-41" fill="#AA81AC" points="191.67 188.837 207.167 188.837 207.167 183.838 191.67 183.838"></polygon>
                <polygon id="Fill-42" fill="#D8A55A" points="198.9 199.651 207.225 199.651 207.225 194.651 198.9 194.651"></polygon>
            </g>
        </g>
    </g>
</svg>